<?xml version="1.0" encoding="UTF-8"?>
<svg id="Layer_1" data-name="Layer 1" xmlns="http://www.w3.org/2000/svg" viewBox="0 0 1218.73 252.63">
  <defs>
    <style>
      .cls-1 {
        stroke-width: 0px;
      }
    </style>
  </defs>
  <path class="cls-1" d="M70.1,8.5c10.86,0,20.33,1.21,28.41,3.63,8.08,2.42,14.51,5,19.31,7.74,4.79,2.74,7.69,4.52,8.69,5.34l-16.7,27.8c-1.46-1.19-3.95-2.85-7.46-5-3.52-2.14-7.74-4.06-12.67-5.75-4.93-1.69-10.27-2.53-16.02-2.53-8.31,0-14.95,1.57-19.92,4.72-4.98,3.15-7.46,7.69-7.46,13.62,0,4.02,1.32,7.6,3.97,10.75,2.65,3.15,6.55,6.09,11.71,8.83,5.16,2.74,11.48,5.61,18.96,8.63,6.57,2.56,12.85,5.52,18.83,8.9,5.98,3.38,11.32,7.35,16.02,11.91,4.7,4.57,8.44,9.86,11.23,15.88,2.78,6.03,4.18,12.92,4.18,20.68,0,8.67-1.76,16.25-5.27,22.73-3.52,6.48-8.35,11.91-14.51,16.29s-13.21,7.67-21.15,9.86-16.29,3.29-25.06,3.29c-11.87,0-22.52-1.39-31.97-4.18-9.45-2.78-17.09-5.77-22.93-8.97-5.84-3.19-9.27-5.25-10.27-6.16l17.53-28.89c1.1.82,3.17,2.15,6.23,3.97,3.06,1.83,6.8,3.7,11.23,5.61,4.43,1.92,9.26,3.56,14.51,4.93,5.25,1.37,10.61,2.05,16.09,2.05,9.86,0,17.3-2.05,22.32-6.16,5.02-4.11,7.53-9.45,7.53-16.02,0-4.93-1.6-9.26-4.79-13.01-3.2-3.74-7.69-7.19-13.49-10.34-5.8-3.15-12.71-6.37-20.74-9.65-8.03-3.38-15.5-7.33-22.39-11.84-6.89-4.52-12.44-10.09-16.64-16.71-4.2-6.62-6.3-14.76-6.3-24.44s2.71-17.94,8.15-25.06c5.43-7.12,12.64-12.64,21.63-16.57,8.99-3.92,18.74-5.89,29.23-5.89Z"/>
  <path class="cls-1" d="M166.5,144.05c.27,5.11,1.64,9.68,4.11,13.69,2.46,4.02,6.05,7.17,10.75,9.45,4.7,2.28,10.38,3.42,17.05,3.42,5.84,0,11.02-.73,15.54-2.19,4.52-1.46,8.35-3.24,11.5-5.34,3.15-2.1,5.45-4.2,6.91-6.3l14.51,21.22c-2.65,3.29-6.07,6.28-10.27,8.97-4.2,2.69-9.56,4.84-16.09,6.44-6.53,1.6-14.67,2.4-24.44,2.4-12.32,0-23.14-2.42-32.45-7.26-9.31-4.84-16.59-11.82-21.84-20.95-5.25-9.13-7.87-19.99-7.87-32.59,0-10.95,2.35-20.83,7.05-29.64,4.7-8.81,11.5-15.77,20.4-20.88,8.9-5.11,19.6-7.67,32.11-7.67,11.78,0,21.98,2.26,30.6,6.78,8.63,4.52,15.31,11.11,20.06,19.79,4.75,8.67,7.12,19.26,7.12,31.77,0,.73-.02,2.24-.07,4.52-.05,2.28-.16,3.74-.34,4.38h-84.35ZM218.66,122.55c-.09-2.92-.98-6.07-2.67-9.45-1.69-3.38-4.34-6.25-7.94-8.63-3.61-2.37-8.33-3.56-14.17-3.56s-10.8,1.16-14.58,3.49c-3.79,2.33-6.62,5.13-8.49,8.42-1.87,3.29-2.99,6.53-3.35,9.72h51.21Z"/>
  <path class="cls-1" d="M290.13,192.52h-34.78v-112.41h34.78v18.21h-.68c.64-2.19,2.4-4.97,5.27-8.35,2.88-3.38,6.87-6.41,11.98-9.11,5.11-2.69,11.27-4.04,18.48-4.04,5.2,0,9.93.75,14.17,2.26s7.28,2.99,9.11,4.45l-13.69,28.48c-1.19-1.46-3.4-2.97-6.64-4.52-3.24-1.55-7.28-2.33-12.12-2.33-5.75,0-10.54,1.57-14.38,4.72-3.83,3.15-6.71,6.98-8.63,11.5s-2.88,8.74-2.88,12.67v58.47Z"/>
  <path class="cls-1" d="M364.07,51.08c-5.75,0-10.61-2.01-14.58-6.02-3.97-4.02-5.96-8.81-5.96-14.38s2.01-10.41,6.02-14.51c4.02-4.11,8.85-6.16,14.51-6.16,3.74,0,7.17.94,10.27,2.81,3.1,1.87,5.61,4.36,7.53,7.46,1.92,3.1,2.88,6.57,2.88,10.41,0,5.57-2.03,10.36-6.09,14.38-4.06,4.02-8.92,6.02-14.58,6.02ZM346.27,192.52v-112.41h34.64v112.41h-34.64Z"/>
  <path class="cls-1" d="M386.39,80.11h20.26v-30.53c0-11.14,2.19-20.29,6.57-27.45,4.38-7.16,10.04-12.5,16.98-16.02,6.94-3.51,14.1-5.27,21.5-5.27,9.04,0,15.97,1.23,20.81,3.7,4.84,2.46,7.8,4.24,8.9,5.34l-13.42,25.74c-.46-.64-1.71-1.66-3.77-3.08-2.05-1.41-4.77-2.12-8.15-2.12-2.38,0-4.7.59-6.98,1.78-2.28,1.19-4.16,3.38-5.61,6.57-1.46,3.2-2.19,7.9-2.19,14.1v27.25h29.44v28.89h-29.44v83.52h-34.64v-83.52h-20.26v-28.89Z"/>
  <path class="cls-1" d="M526.87,11.78h49.84c19.26,0,35.17,3.86,47.72,11.57,12.55,7.71,21.93,18.37,28.14,31.97,6.21,13.6,9.31,29.16,9.31,46.69s-3.1,33.23-9.31,46.83c-6.21,13.6-15.59,24.28-28.14,32.04-12.55,7.76-28.46,11.64-47.72,11.64h-49.84V11.78ZM560.82,42.32v119.67h12.87c11.78,0,21.47-2.58,29.1-7.74,7.62-5.16,13.33-12.25,17.12-21.29,3.79-9.04,5.68-19.26,5.68-30.67.09-11.5-1.74-21.77-5.48-30.81-3.74-9.04-9.47-16.16-17.18-21.36-7.71-5.2-17.46-7.8-29.23-7.8h-12.87Z"/>
  <path class="cls-1" d="M690.49,51.08c-5.75,0-10.61-2.01-14.58-6.02-3.97-4.02-5.96-8.81-5.96-14.38s2.01-10.41,6.02-14.51c4.02-4.11,8.85-6.16,14.51-6.16,3.74,0,7.16.94,10.27,2.81,3.1,1.87,5.61,4.36,7.53,7.46,1.92,3.1,2.88,6.57,2.88,10.41,0,5.57-2.03,10.36-6.09,14.38-4.06,4.02-8.92,6.02-14.58,6.02ZM672.68,192.52v-112.41h34.64v112.41h-34.64Z"/>
  <path class="cls-1" d="M810.57,192.52v-19.58c-.82,2.01-2.92,4.84-6.3,8.49-3.38,3.65-7.92,6.96-13.62,9.93-5.71,2.97-12.39,4.45-20.06,4.45-10.77,0-20.31-2.58-28.62-7.74-8.31-5.16-14.81-12.23-19.51-21.22-4.7-8.99-7.05-19.15-7.05-30.47s2.35-21.47,7.05-30.47c4.7-8.99,11.2-16.09,19.51-21.29,8.3-5.2,17.84-7.8,28.62-7.8,7.48,0,13.99,1.26,19.51,3.76,5.52,2.51,10,5.43,13.42,8.76,3.42,3.33,5.64,6.32,6.64,8.97v-18.21h34.5v112.41h-34.09ZM779.07,252.63c-8.22,0-16.09-.78-23.62-2.33-7.53-1.55-14.36-3.97-20.47-7.26-6.12-3.29-11.23-7.58-15.33-12.87l21.09-21.36c1.92,2.46,4.4,4.95,7.46,7.46,3.06,2.51,6.96,4.61,11.71,6.3,4.75,1.69,10.68,2.53,17.8,2.53,6.75,0,12.57-1.3,17.46-3.9,4.88-2.6,8.67-6.28,11.37-11.02,2.69-4.75,4.04-10.27,4.04-16.57v-3.15h34.09v5.2c0,12.41-2.92,22.87-8.76,31.36-5.84,8.49-13.69,14.88-23.55,19.17-9.86,4.29-20.95,6.44-33.27,6.44ZM749.5,136.38c0,6.3,1.41,11.84,4.25,16.64,2.83,4.79,6.57,8.51,11.23,11.16,4.66,2.65,9.72,3.97,15.2,3.97,5.75,0,10.86-1.35,15.34-4.04,4.47-2.69,8.01-6.43,10.61-11.23,2.6-4.79,3.9-10.29,3.9-16.5s-1.3-11.71-3.9-16.5c-2.6-4.79-6.14-8.56-10.61-11.3-4.47-2.74-9.58-4.11-15.34-4.11s-10.54,1.35-15.2,4.04c-4.66,2.69-8.4,6.44-11.23,11.23-2.83,4.79-4.25,10.34-4.25,16.64Z"/>
  <path class="cls-1" d="M876.56,51.08c-5.75,0-10.61-2.01-14.58-6.02-3.97-4.02-5.96-8.81-5.96-14.38s2.01-10.41,6.02-14.51c4.02-4.11,8.85-6.16,14.51-6.16,3.74,0,7.16.94,10.27,2.81,3.1,1.87,5.61,4.36,7.53,7.46,1.92,3.1,2.88,6.57,2.88,10.41,0,5.57-2.03,10.36-6.09,14.38-4.06,4.02-8.92,6.02-14.58,6.02ZM858.76,192.52v-112.41h34.64v112.41h-34.64Z"/>
  <path class="cls-1" d="M898.6,80.11h20.26v-46.14h34.5v46.14h26.56v28.89h-26.56v40.67c0,5.39.87,9.56,2.6,12.53,1.73,2.97,4.47,4.45,8.21,4.45,2.83,0,5.16-.57,6.98-1.71,1.83-1.14,2.92-1.94,3.29-2.4l12.32,24.92c-.55.55-2.31,1.51-5.27,2.88-2.97,1.37-6.76,2.62-11.37,3.76-4.61,1.14-9.79,1.71-15.54,1.71-10.32,0-18.85-2.99-25.6-8.97-6.76-5.98-10.13-15.27-10.13-27.86v-49.98h-20.26v-28.89Z"/>
  <path class="cls-1" d="M1075.78,192.52v-19.58c-.82,2.01-2.92,4.84-6.3,8.49-3.38,3.65-7.92,6.96-13.62,9.93-5.71,2.97-12.39,4.45-20.06,4.45-10.77,0-20.31-2.58-28.62-7.74-8.31-5.16-14.81-12.23-19.51-21.22-4.7-8.99-7.05-19.15-7.05-30.47s2.35-21.47,7.05-30.47c4.7-8.99,11.2-16.09,19.51-21.29,8.3-5.2,17.84-7.8,28.62-7.8,7.48,0,13.99,1.26,19.51,3.76,5.52,2.51,10,5.43,13.42,8.76,3.42,3.33,5.64,6.32,6.64,8.97v-18.21h34.5v112.41h-34.09ZM1014.71,136.38c0,6.3,1.41,11.84,4.25,16.64,2.83,4.79,6.57,8.51,11.23,11.16,4.66,2.65,9.72,3.97,15.2,3.97,5.75,0,10.86-1.35,15.34-4.04,4.47-2.69,8.01-6.43,10.61-11.23,2.6-4.79,3.9-10.29,3.9-16.5s-1.3-11.71-3.9-16.5c-2.6-4.79-6.14-8.56-10.61-11.3-4.47-2.74-9.58-4.11-15.34-4.11s-10.54,1.35-15.2,4.04c-4.66,2.69-8.4,6.44-11.23,11.23-2.83,4.79-4.25,10.34-4.25,16.64Z"/>
  <path class="cls-1" d="M1156.7,192.52h-34.92V4.11h34.92v188.41Z"/>
  <path class="cls-1" d="M1196.27,195.81c-6.12,0-11.37-2.19-15.75-6.57-4.38-4.38-6.57-9.63-6.57-15.75s2.19-11.64,6.57-16.02,9.63-6.57,15.75-6.57,11.61,2.19,15.95,6.57c4.33,4.38,6.5,9.72,6.5,16.02s-2.17,11.36-6.5,15.75c-4.34,4.38-9.65,6.57-15.95,6.57Z"/>
</svg>