<?xml version="1.0" encoding="utf-8"?>
<!-- Generator: Adobe Illustrator 28.2.0, SVG Export Plug-In . SVG Version: 6.00 Build 0)  -->
<svg version="1.1" id="Layer_1" xmlns="http://www.w3.org/2000/svg" xmlns:xlink="http://www.w3.org/1999/xlink" x="0px" y="0px"
	 viewBox="0 0 768.5 83" style="enable-background:new 0 0 768.5 83;" xml:space="preserve">
<style type="text/css">
	.st0{enable-background:new    ;}
</style>
<g class="st0">
	<path d="M45.2,29.2c0,5.6-0.2,11.9-0.5,19l-0.1,2.2c-0.1,4-0.4,7.5-0.9,10.5c-0.5,3-1.4,5.5-2.8,7.5c-2.1,3.1-4.6,5.2-7.3,6.4
		c-2.8,1.2-5.8,1.8-9.2,1.8c-4.4,0-8.5-1-12.3-3c-3.8-2-6.4-4.9-7.9-8.6c-0.6-1.6-0.9-4.1-0.9-7.5c0-6.4,0.1-15.6,0.4-27.9
		c0.1-2.4,0.1-5.2,0.2-8.3c0.1-3.1,0.1-6.5,0.1-10.2c0.2-0.4,1-0.7,2.4-0.8c1.4-0.1,3.3-0.1,5.5-0.1c3.6,0,5.6,0.4,6.1,1.2
		c0,4.9,0,8.6-0.1,11l-0.1,11c0,1.7,0.1,4.2,0.2,7.6c0.1,3.5,0.2,6,0.2,7.7l-0.1,3.2c0,2.6,0.4,4.8,1.3,6.5s2.5,2.6,4.9,2.6
		c1.5,0,2.6-0.3,3.4-1c0.8-0.7,1.3-1.8,1.6-3.5c0.3-1.7,0.5-4.1,0.5-7.3v-9.4c0-11,0.2-20.4,0.5-28.1c1.5-0.7,4.6-1.1,9.3-1.1
		c1.9,0,3.6,0.4,5.1,1.1l0.2,0.4C45,19.6,45.2,25.4,45.2,29.2z M43.9,12.2c-1.3-0.6-2.8-0.9-4.5-0.9c-0.9,0-2.2,0.1-4.1,0.4
		C33.4,11.9,32,12,31.1,12c-0.2,4.2-0.3,8.7-0.4,13.7c-0.1,4.9-0.1,8.2-0.1,9.7c0,7.5-0.1,13.1-0.2,16.9c-0.2,3.5-0.8,6-1.7,7.4
		c-0.9,1.4-2.6,2.2-5.2,2.2c-2,0-3.5-0.7-4.4-2.1c-1-1.4-1.6-3.1-1.8-5c-0.2-1.9-0.3-4.4-0.3-7.4c0-1.8,0-3.1-0.1-3.9
		c-0.2-4.1-0.4-8.6-0.4-13.7c0-5.4,0.2-11.4,0.5-18c-1.9-0.3-4.1-0.5-6.6-0.5l-5.6,0.1c0,3.5,0,7.6-0.1,12.3
		c-0.1,4.7-0.1,8.3-0.2,10.9c-0.2,7.7-0.3,15.4-0.3,23.1c0,2.7,0.3,5.1,0.8,6.9c1,3.4,3.5,6.1,7.4,8.1c4,2,8.2,2.9,12.8,2.9
		c5.4,0,9.4-1.3,12-3.9c2.6-2.6,4.3-5.6,5-9c0.7-3.4,1.2-7.6,1.4-12.5l0.1-2.1c0.3-7,0.5-13.2,0.5-18.8
		C44.2,25.5,44.1,19.8,43.9,12.2z"/>
	<path d="M96,74.6l-7.9,0.1c-1.7,0.1-4.3,0.1-7.8,0.1l-0.4-0.3c-0.3-0.6-1.2-2.6-2.8-5.8c-1.4-3.1-2.5-5.4-3.3-6.9
		c-0.9-1.7-2.5-4.1-4.6-7.2c-0.4-0.6-0.7-1.1-1-1.5c-0.3-0.4-0.6-0.8-0.8-1.2c-0.2,1.6-0.4,3.7-0.4,6.4c0,5.5,0.3,10.6,1,15.2
		c-0.6,1.1-3.6,1.7-9,1.7L55.1,75c-0.8-0.1-2-0.1-3.6-0.1l-0.3-0.7l-0.1,0.2c0.2-1.1,0.3-2.8,0.3-5.1c0-5-0.1-12.5-0.2-22.4
		c-0.2-7.4-0.3-14.9-0.3-22.4v-5c0-4.2-0.2-7.6-0.6-10.2l0.5-0.6c7-1.2,12.9-1.9,17.7-1.9c4.6,0,8.9,0.7,12.9,2.2
		c4.1,1.5,7.3,3.8,9.9,6.9c2.5,3.1,3.8,7,3.8,11.6c0,3.1-0.6,6-1.8,8.8c-1.2,2.8-3,5.2-5.2,7c-2.3,1.8-4.9,2.9-8,3
		c0.9,1.6,2.9,4.7,6,9.3c2.7,4,4.8,7.4,6.5,10.1c1.6,2.7,3,5.6,4.1,8.6L96,73.8V74.6z M91.1,65.2c-1.6-2.6-3.9-6.2-6.9-10.8
		l-1.5-2.1c-1.1-1.4-2-2.6-2.6-3.6c-0.6-1-1-1.9-1.2-2.8l0.5-0.6c3,0,5.6-0.9,7.9-2.6c2.2-1.7,4-4,5.1-6.7c1.2-2.7,1.8-5.6,1.8-8.5
		c0-4.8-1.3-8.7-3.8-11.6c-2.5-3-5.6-5.1-9.4-6.3c-3.7-1.2-7.6-1.8-11.5-1.8c-0.9,0-2.2,0.1-4.1,0.2L63.2,8h0.2
		c-4.8,0.3-8.8,0.8-12.1,1.4c0.1,1,0.2,1.7,0.2,2.2c0,8.7,0.2,18.5,0.5,29.3c0.2,12.8,0.4,22.5,0.4,29.1c0,1.4-0.1,2.7-0.3,4
		c1.6,0,2.7,0,3.6,0.1l4,0.1c3.1,0,5.6-0.3,7.6-1c-0.7-5.6-1-10.7-1-15.3c0-3,0.2-5.4,0.6-7.3l0.8-0.2c0.3,0.4,0.7,1,1.1,1.6
		c0.4,0.6,0.9,1.3,1.4,2c2.2,3.2,3.8,5.8,4.8,7.6l3,6.2c1.1,2.4,2,4.5,2.9,6.3l7.3-0.1c1.6-0.1,4.1-0.1,7.3-0.1
		C94.1,70.7,92.6,67.9,91.1,65.2z M70.9,20.2c2.4,0,4.4,0.7,5.8,2.2c1.4,1.4,2.2,3.2,2.2,5.2c0,2-0.6,3.7-1.8,5c-1.2,1.3-3,2-5.4,2
		c-1.4,0-2.7-0.1-3.9-0.3c-1.5-0.1-2.4-0.2-2.8-0.2c-0.7-0.7-1-1.8-1-3.3c0-0.7,0-1.5,0.1-2.2c0.1-0.7,0.1-1.3,0.1-1.8
		c0-0.2,0-0.5-0.1-0.7C64,25.8,64,25.5,64,25.2l0.1-1.7l0.2-1.9C66.6,20.7,68.8,20.2,70.9,20.2z M64.9,22.5v0.6
		c0.1,0.2,0.2,1.1,0.2,2.6L65,30.3c0,1,0.1,2,0.3,2.9c1.7,0.4,3.5,0.6,5.3,0.6c4.9,0,7.4-2,7.4-5.9c0-1.2-0.3-2.3-0.8-3.3
		c-0.5-1-1.3-1.8-2.2-2.4c-1.2-0.6-2.5-0.9-4-0.9C69,21.2,67,21.6,64.9,22.5z"/>
</g>
<g class="st0">
	<path d="M129.5,74c-3.1,1-6.7,1.4-10.7,1.4c-1.2,0-3.2-0.1-6-0.2h-2.3c-6.6,0-10.1-0.4-10.6-1.1c-0.1-3.6-0.2-9.1-0.2-16.4
		l0.1-29.8c0-8.1-0.1-14.2-0.2-18.3c0.9-0.9,3.1-1.6,6.5-2.1c3.4-0.4,6.8-0.7,10.2-0.7c5.7,0,10,1,12.9,3.1l1.9,1.3
		c0.9,0.6,1.5,1.1,1.8,1.4c0.3,0.3,0.7,0.8,1.2,1.5c0.5,0.7,1,1.4,1.5,2.1c0.9,1.2,1.4,2.5,1.7,4.1c0.2,1.5,0.4,3.3,0.4,5.4
		c0,3.4-0.6,6.4-1.8,8.8c-1.2,2.5-3.3,4.5-6.4,6c-0.2,0.1-0.4,0.2-0.5,0.3c-0.2,0.1-0.3,0.2-0.5,0.3c0,0.1,0.1,0.2,0.2,0.2
		c4.3,2,7.3,4.3,9,7c1.7,2.7,2.5,6.4,2.5,11v1.4c-0.1,0.3-0.2,1.1-0.4,2.3c-0.2,1.2-0.5,2.3-0.8,3.2c-0.3,0.9-0.8,1.7-1.3,2.2
		C135.3,71.2,132.6,73,129.5,74z M137.9,51.1c-0.8-2.4-2.3-4.4-4.5-6c-0.4-0.3-1.2-0.7-2.3-1.2c-1.1-0.4-1.9-0.8-2.4-1.2
		c-0.6-0.4-1-0.8-1.3-1.4c0-0.3,0.2-0.7,0.7-1.2c0.5-0.5,1.2-1,2.2-1.7c0.9-0.7,1.7-1.4,2.6-2.2c0.9-0.7,1.5-1.5,2-2.2
		c1.4-2.4,2.1-5.1,2.1-8c0-3.7-0.9-6.9-2.8-9.6c-1.8-2.7-4.4-4.8-7.6-6.3c-3.2-1.5-6.8-2.2-10.8-2.2c-4.2,0-9.3,0.7-15.1,2.1
		c0.1,4,0.2,10,0.2,18l-0.1,29.5c0,7.2,0.1,12.5,0.2,16.1c0.5,0.1,0.9,0.2,1.3,0.2l1.9-0.1l5.5,0.3c4,0.2,7.1,0.4,9.4,0.4
		c4,0,7.5-0.5,10.5-1.4c3-0.9,5.4-2.6,7.1-5c0.6-0.9,1.1-1.8,1.3-2.5c0.2-0.7,0.5-1.5,0.6-2.4c0.2-0.9,0.3-1.7,0.4-2.3v-1.4
		C139.1,56.2,138.7,53.5,137.9,51.1z M123.4,61.1c-1.7,0.9-4.2,1.4-7.3,1.4c-0.8,0-2.2-0.1-4-0.2c-0.9-1.8-1.4-5.1-1.4-9.8
		c0-1.4,0.1-2.6,0.2-3.6c0.2-1,0.5-1.9,0.9-2.8c2.8,0,4.9,0.1,6.4,0.2c1.4,0.1,2.8,0.6,4.1,1.4c1.3,0.8,2.3,2.2,3.1,4.1
		c0.4,1.5,0.7,2.9,0.7,4.1C126,58.5,125.1,60.2,123.4,61.1z M122.7,34c-2.6,1.4-5.4,2.1-8.5,2.1c-1.3,0-2.2-0.2-2.5-0.7
		c-0.4-0.5-0.6-1.3-0.6-2.4c0-1,0.1-2.5,0.2-4.5l0.1-4.4l-0.1-2.1c0.2-0.6,0.9-1,1.9-1.2c1-0.2,2.1-0.4,3.2-0.4c2,0,3.9,0.4,5.7,1.2
		c1.8,0.8,3,1.9,3.7,3.3c0.5,1.3,0.7,2.4,0.7,3.3C126.5,30.7,125.3,32.6,122.7,34z M111.8,52.5c0,1.7,0.3,4.6,0.8,8.7
		c2.8,0.2,4.4,0.3,4.8,0.3c2.2,0,4-0.4,5.3-1.2c1.3-0.8,2-2.4,2-4.7c0-1.3-0.2-2.5-0.5-3.5c-0.6-1.6-1.5-2.8-2.7-3.5
		c-1.2-0.7-2.3-1.1-3.6-1.2c-1.2-0.1-3.1-0.2-5.7-0.2C111.9,49,111.8,50.7,111.8,52.5z M112.4,22.3l0.1,2.2l-0.1,3.6
		c-0.1,1.6-0.2,2.8-0.2,3.6l-0.1,1.5c0,0.6,0.1,1,0.4,1.3c0.3,0.3,0.9,0.4,1.7,0.4c2.8,0,5.4-0.6,7.7-1.7c2.3-1.1,3.5-2.7,3.5-4.9
		c0-1-0.2-2-0.7-2.9c-0.6-1.2-1.7-2.1-3.3-2.8c-1.7-0.7-3.4-1-5.2-1C114.8,21.6,113.5,21.8,112.4,22.3z"/>
</g>
<g class="st0">
	<path d="M176.3,75.3c-1.4,0-2.9-0.1-4.7-0.2c-1.7-0.2-2.8-0.5-3.2-0.9c-0.6-1.4-1.2-3.7-1.9-6.8c-0.4-1.9-0.7-3.4-1.1-4.6
		c-0.3-1.2-0.8-2.4-1.4-3.5c-0.5,0-1,0-1.6-0.1c-0.6-0.1-1.1-0.1-1.6-0.1c-0.2,0.1-0.6,0.2-0.9,0.2l-1.1-0.1c-0.6,1.2-1,2.5-1.2,4.1
		c-0.2,1.5-0.4,2.4-0.4,2.8c-0.2,1.9-0.5,3.6-0.9,4.9c-0.3,1.3-0.9,2.6-1.5,3.7l-0.2,0.1l-0.4,0.2h0.1l-0.8,0.1l-5.6-0.1
		c-3.1-0.1-5.5-0.2-7.2-0.2l-0.1-0.1l-0.2-0.5c0.3-1.1,0.5-2.4,0.7-3.9c0.1-1.1,0.2-1.9,0.4-2.3c3.6-22.5,8-42.2,13.3-59l0.5-0.4
		h0.5c0.4-0.2,2.4-0.3,6-0.3c0.9-0.1,1.8-0.1,2.7-0.1c0.9,0,1.7,0,2.4-0.1c0.5,0.6,0.9,1.7,1.4,3.5c0.4,1.8,0.6,2.8,0.7,3.1l0.5,2.3
		c2.4,10.5,6.2,27.4,11.2,50.8l1.4,6.4v0.3C181.6,75,179.7,75.3,176.3,75.3z M180.9,74L175,47.2c-3.3-14.8-5.5-24.8-6.6-29.9
		c-0.1-0.3-0.3-1.4-0.8-3.3c-0.6-2.2-1-3.9-1.1-5c-2.9,0.3-6.5,0.5-10.8,0.5c-5.6,17.8-10,37.4-13.2,58.7c-0.1,0.5-0.2,1.4-0.3,2.6
		c-0.2,1.2-0.4,2.3-0.6,3.1c4.1,0.2,7,0.3,8.8,0.3c1.9,0,3.2-0.1,3.8-0.2c0.6-1,1.1-2.2,1.4-3.5c0.3-1.3,0.7-2.9,1-4.8
		c0.5-3.2,1.1-5.6,1.7-7.1l0.4-0.3h2c0.2-0.1,0.6-0.2,1.1-0.2c0.6,0,1.1,0,1.7,0.1s1.1,0.2,1.5,0.4c0.8,1.6,1.4,3.3,1.8,5.1
		c0.4,1.9,0.6,3,0.7,3.3c0.6,2.9,1.1,5,1.7,6.5c0.6,0.1,1.4,0.2,2.2,0.3c0.9,0.2,1.6,0.3,2.2,0.3c1.2,0.1,2.2,0.2,2.9,0.2
		C178.1,74.4,179.6,74.3,180.9,74z M159.3,48.2c-0.7,0-1.3-0.2-1.8-0.7c1.2-13.3,2.4-19.9,3.6-19.9h0.4c1,1.2,1.7,3.1,2.2,5.7
		c0.5,2.6,0.9,5.9,1.2,9.9c0.1,0.7,0.1,1.4,0.2,2.2c0.1,0.7,0.2,1.5,0.3,2.2l-0.5,0.5L159.3,48.2z M164.3,47.2
		c-0.7-6.3-1.4-11.1-2-14.4c-0.1-0.2-0.2-0.9-0.3-1.9c-0.1-1-0.4-1.7-0.7-2.2c-0.7,2.1-1.2,4.3-1.5,6.5c-0.3,2.2-0.7,5-1,8.5
		l-0.4,3.6c0.4,0.1,1,0.1,1.8,0.1C161.1,47.4,162.5,47.3,164.3,47.2z"/>
	<path d="M211.8,74.6l-3.1-6.6c-2.3-4.6-4.1-8.6-5.4-11.9c-0.8-1.9-1.6-3.9-2.2-6.1l-2.2-5.6c-0.4,4.1-0.6,9.4-0.6,16v6.3
		c0,3.5,0.1,6.1,0.3,7.8c-0.5,0.5-1.3,0.8-2.3,1c-1,0.2-2.2,0.2-3.6,0.2c-1.4,0-3-0.1-4.8-0.4c-1.8-0.3-2.9-0.6-3.3-1
		c0-4.1-0.1-10.3-0.2-18.7c-0.1-8.2-0.2-14.4-0.2-18.6c0-10.9,0.3-20.3,0.9-28.1c1.1-0.6,2.6-0.8,4.4-0.8c0.4,0,0.8,0.1,1.2,0.2
		c2.1,0,3.7,0,5,0.1c1.2,0.1,2,0.5,2.3,1.1c0,0.5,0.2,1.3,0.7,2.3c0.5,1,1.1,2.1,1.7,3.1c0.6,1,1.2,2,1.7,3c0.5,1,0.7,1.7,0.7,2.2
		c0.2,0.6,0.7,1.7,1.6,3.3l1.1,2.1c0.2,0.4,1.1,2.3,2.8,5.7l1.8,3.6c0.2-2,0.4-4.2,0.4-6.7c0-1.6-0.1-4-0.2-7.1
		c-0.2-2.4-0.3-4.7-0.3-7.1c0-1.7,0.1-3.5,0.3-5.1c0.9-0.4,1.9-0.7,3-0.8c1.2-0.1,2.5-0.1,4.2-0.1c4.1,0,6.3,0.3,6.6,1l0.1,65.8
		l-0.5,0.5h-0.1c-0.7,0.3-1.7,0.5-3,0.5c-1,0-2.4-0.1-4.3-0.2c-1.4-0.2-2.8-0.3-4.3-0.3L211.8,74.6z M223.3,8.9
		c-2.2-0.3-4.1-0.5-5.8-0.5c-1.8,0-3.9,0.2-6.2,0.5c-0.2,2.1-0.3,4.1-0.3,6.1c0,1.8,0.1,4.5,0.2,8.1c0.2,2.7,0.3,5.5,0.3,8.3
		c0,1.1-0.1,2.1-0.2,2.8c-0.2,0.7-0.5,1.3-0.9,1.8h-0.1c-0.8,0-2.4-2.9-4.8-8.6l-0.7-1.8c-0.2-0.4-0.7-1.2-1.5-2.4
		c-0.8-1.2-1.2-2.3-1.3-3.1l-1.8-3.6c-1.9-3.5-2.9-5.8-3.1-6.8c-0.6-0.1-1.8-0.2-3.6-0.4c-0.3,0-0.8,0-1.6-0.1
		c-0.7-0.1-1.2-0.2-1.5-0.3h-1.6c-0.2,0.1-0.5,0.2-1,0.2H187c-0.4,0-0.7,0-0.9,0.1c-0.6,7.6-0.9,16.8-0.9,27.6
		c0,4.1,0.1,10.3,0.2,18.5c0.1,8.2,0.2,14.4,0.2,18.4c1.1,0,2,0,2.9,0.1c0.9,0.1,1.5,0.1,1.9,0.1c1.3,0.2,2.8,0.3,4.4,0.3
		c0.3-0.1,0.8-0.2,1.5-0.2c0.6,0,1.1,0,1.4-0.1c-0.2-2.4-0.3-4.9-0.3-7.4c0-3.1,0.1-6.1,0.3-9.2c0.1-3,0.2-5.3,0.2-6.8l-0.1-2.7
		c0-3.7,0.3-5.6,1-5.6h0.1l0.5,0.3c0.6,1.4,1.3,3.5,2.3,6.4c0.2,0.7,0.6,1.7,1.1,3.1c0.5,1.4,1,2.6,1.4,3.6
		c1.1,2.9,2.8,6.6,5.1,11.1l3.3,7.1c1.9,0,3.5,0.1,4.7,0.3c1.5,0.1,2.7,0.2,3.6,0.2c0.3,0,0.7-0.1,1.2-0.2c0.5-0.1,1-0.2,1.4-0.3
		L223.3,8.9z"/>
</g>
<g class="st0">
	<path d="M264.4,24.9l-0.1,0.3l-0.1,0.1c-0.4,1.2-0.6,2.8-0.6,4.8l0.1,3c0.1,0.6,0.1,1.3,0.1,2.2c0,1.1-0.1,2.7-0.2,5
		c-0.1,2.4-0.2,4.2-0.2,5.4c0,3.7,0.5,7,1.4,9.9c0.9,2.8,2.6,4.3,5.2,4.3c1,0,1.9-0.2,2.8-0.7c0.9-0.5,1.6-1.1,2.2-2
		c0.4-0.6,0.6-1.6,0.7-2.9c0.1-1.3,0.2-2.1,0.2-2.4c0.1-1.4,0.2-2.5,0.3-3.2c0.1-0.7,0.3-1.2,0.7-1.4c0.6,0.2,1.2,0.3,1.8,0.3
		c0.5,0,1.2-0.1,2.2-0.2c0.9-0.2,1.7-0.3,2.4-0.3c2.7,0,4.7,0.2,6.1,0.7c0.9,0.9,1.3,3.2,1.3,6.9c0,4-0.9,7.6-2.7,10.8
		c-1.8,3.2-4.5,5.8-7.9,7.7c-3.5,1.9-7.6,2.9-12.4,2.9c-6.6,0-11.5-1.7-14.8-5.1c-1.2-1.2-2-2.7-2.6-4.3c-0.5-1.6-0.8-3-0.9-4.3
		c-0.1-1.3-0.2-3.4-0.2-6.3c-0.1-3.6-0.2-6.4-0.2-8.3V37.5l0.1-6.6c0.1-1.4,0.1-3.6,0.1-6.5c-0.1-0.3-0.2-0.8-0.2-1.5
		c0-1.2,0.4-2.9,1.3-5c1.7-4.2,3.8-7.2,6.5-9.1c2.6-1.9,6.5-2.8,11.5-2.8c4,0,7.7,1.1,11.2,3.2c3.5,2.1,6.3,4.9,8.4,8.5
		c2.1,3.5,3.1,7.2,3.1,11.2c0,2.4-0.3,4.6-1,6.5c-0.6,0.6-2.5,0.9-5.5,0.9c-4.1,0-7.1-0.5-9.1-1.4c-0.2-0.8-0.3-2.2-0.5-4
		c-0.1-1.7-0.2-3.1-0.4-4.2c-0.2-1.1-0.7-2-1.5-2.7c-0.8-0.7-2-1.1-3.6-1.1c-0.4,0.1-0.9,0.2-1.6,0.3c-0.7,0.1-1.2,0.2-1.6,0.3
		c-0.4,0.1-0.8,0.4-1.2,0.7C264.6,24.6,264.4,24.9,264.4,24.9L264.4,24.9z M268.8,21.7c2,0,3.5,0.5,4.5,1.4c1,1,1.7,2.1,2,3.4
		c0.3,1.3,0.5,2.9,0.5,4.9c0,0.3,0,0.8,0.1,1.4c0.1,0.6,0.1,1.1,0.2,1.5c3.5,0.6,6.2,0.9,8.2,0.9c1.9,0,3.5-0.2,4.7-0.6
		c0.7-2.2,1-4.3,1-6.3c0-3.7-1-7.3-3.1-10.6c-2.1-3.3-4.9-6-8.4-7.9c-3.5-2-7.3-3-11.4-3c-3.2,0-6.1,0.7-8.7,2
		c-2.6,1.3-4.7,3.3-6.2,5.8c-1.5,2.6-2.3,5.6-2.3,9.1c0.2,0.6,0.3,1.5,0.3,2.6c0,2.1-0.1,5-0.3,8.5c-0.1,1.6-0.2,3-0.2,4
		c0,2.6,0.1,6.3,0.2,11.3L250,56c0,0.5,0,1.8,0,4c0,2.2,0.3,4.1,0.9,5.9c0.6,1.7,1.4,3.2,2.5,4.4c3,3.2,7.6,4.9,13.9,4.9
		c4.6,0,8.6-0.9,12-2.6c3.4-1.7,5.9-4.2,7.7-7.2s2.7-6.6,2.7-10.5c0-2.2-0.3-4.2-0.8-6.2c-0.5-0.2-1.2-0.3-2.2-0.3
		c-0.9,0-1.6-0.1-2.1-0.2c-1.2,0-2.1,0-2.7,0.1l-2.7,0.1c-0.9,0-1.6,0-2.1-0.1c-0.2,0.8-0.3,2-0.3,3.6c0,2-0.2,3.5-0.5,4.4
		c-0.5,1.4-1.3,2.5-2.4,3.3c-1.1,0.8-2.3,1.2-3.6,1.2c-2.9,0-4.9-1.4-6-4.3c-1.2-2.8-1.7-6.7-1.7-11.6c0-1.7,0.1-5,0.3-9.6l-0.1-4.1
		c0-3.9,0.4-6.5,1.3-7.6l0.1-0.2C265.3,22.2,266.8,21.7,268.8,21.7z"/>
</g>
<g class="st0">
	<path d="M327,75.3c-1.4,0-2.9-0.1-4.7-0.2c-1.7-0.2-2.8-0.5-3.2-0.9c-0.6-1.4-1.2-3.7-1.9-6.8c-0.4-1.9-0.7-3.4-1.1-4.6
		c-0.3-1.2-0.8-2.4-1.4-3.5c-0.5,0-1,0-1.6-0.1c-0.6-0.1-1.1-0.1-1.6-0.1c-0.2,0.1-0.6,0.2-0.9,0.2l-1.1-0.1c-0.6,1.2-1,2.5-1.2,4.1
		c-0.2,1.5-0.4,2.4-0.4,2.8c-0.2,1.9-0.5,3.6-0.9,4.9c-0.3,1.3-0.9,2.6-1.5,3.7l-0.2,0.1l-0.4,0.2h0.1l-0.8,0.1l-5.6-0.1
		c-3.1-0.1-5.5-0.2-7.2-0.2l-0.1-0.1l-0.2-0.5c0.3-1.1,0.5-2.4,0.7-3.9c0.1-1.1,0.2-1.9,0.4-2.3c3.6-22.5,8-42.2,13.3-59l0.5-0.4
		h0.5c0.4-0.2,2.4-0.3,6-0.3c0.9-0.1,1.8-0.1,2.7-0.1c0.9,0,1.7,0,2.4-0.1c0.5,0.6,0.9,1.7,1.4,3.5c0.4,1.8,0.6,2.8,0.7,3.1L320,17
		c2.4,10.5,6.2,27.4,11.2,50.8l1.4,6.4v0.3C332.3,75,330.5,75.3,327,75.3z M331.6,74l-5.9-26.8c-3.3-14.8-5.5-24.8-6.6-29.9
		c-0.1-0.3-0.3-1.4-0.8-3.3c-0.6-2.2-1-3.9-1.1-5c-2.9,0.3-6.5,0.5-10.8,0.5c-5.6,17.8-10,37.4-13.2,58.7c-0.1,0.5-0.2,1.4-0.3,2.6
		c-0.2,1.2-0.4,2.3-0.6,3.1c4.1,0.2,7,0.3,8.8,0.3c1.9,0,3.2-0.1,3.8-0.2c0.6-1,1.1-2.2,1.4-3.5c0.3-1.3,0.7-2.9,1-4.8
		c0.5-3.2,1.1-5.6,1.7-7.1l0.4-0.3h2c0.2-0.1,0.6-0.2,1.1-0.2c0.6,0,1.1,0,1.7,0.1s1.1,0.2,1.5,0.4c0.8,1.6,1.4,3.3,1.8,5.1
		c0.4,1.9,0.6,3,0.7,3.3c0.6,2.9,1.1,5,1.7,6.5c0.6,0.1,1.4,0.2,2.2,0.3c0.9,0.2,1.6,0.3,2.2,0.3c1.2,0.1,2.2,0.2,2.9,0.2
		C328.8,74.4,330.3,74.3,331.6,74z M310,48.2c-0.7,0-1.3-0.2-1.8-0.7c1.2-13.3,2.4-19.9,3.6-19.9h0.4c1,1.2,1.7,3.1,2.2,5.7
		c0.5,2.6,0.9,5.9,1.2,9.9c0.1,0.7,0.1,1.4,0.2,2.2c0.1,0.7,0.2,1.5,0.3,2.2l-0.5,0.5L310,48.2z M315.1,47.2
		c-0.7-6.3-1.4-11.1-2-14.4c-0.1-0.2-0.2-0.9-0.3-1.9c-0.1-1-0.4-1.7-0.7-2.2c-0.7,2.1-1.2,4.3-1.5,6.5c-0.3,2.2-0.7,5-1,8.5
		l-0.4,3.6c0.4,0.1,1,0.1,1.8,0.1C311.8,47.4,313.2,47.3,315.1,47.2z"/>
	<path d="M362.6,74.6l-3.1-6.6c-2.3-4.6-4.1-8.6-5.4-11.9c-0.8-1.9-1.6-3.9-2.2-6.1l-2.2-5.6c-0.4,4.1-0.6,9.4-0.6,16v6.3
		c0,3.5,0.1,6.1,0.3,7.8c-0.5,0.5-1.3,0.8-2.3,1c-1,0.2-2.2,0.2-3.6,0.2c-1.4,0-3-0.1-4.8-0.4c-1.8-0.3-2.9-0.6-3.3-1
		c0-4.1-0.1-10.3-0.2-18.7c-0.1-8.2-0.2-14.4-0.2-18.6c0-10.9,0.3-20.3,0.9-28.1c1.1-0.6,2.6-0.8,4.4-0.8c0.4,0,0.8,0.1,1.2,0.2
		c2.1,0,3.7,0,5,0.1c1.2,0.1,2,0.5,2.3,1.1c0,0.5,0.2,1.3,0.7,2.3c0.5,1,1.1,2.1,1.7,3.1c0.6,1,1.2,2,1.7,3c0.5,1,0.7,1.7,0.7,2.2
		c0.2,0.6,0.7,1.7,1.6,3.3l1.1,2.1c0.2,0.4,1.1,2.3,2.8,5.7l1.8,3.6c0.2-2,0.4-4.2,0.4-6.7c0-1.6-0.1-4-0.2-7.1
		c-0.2-2.4-0.3-4.7-0.3-7.1c0-1.7,0.1-3.5,0.3-5.1c0.9-0.4,1.9-0.7,3-0.8c1.2-0.1,2.5-0.1,4.2-0.1c4.1,0,6.3,0.3,6.6,1l0.1,65.8
		l-0.5,0.5h-0.1c-0.7,0.3-1.7,0.5-3,0.5c-1,0-2.4-0.1-4.3-0.2c-1.4-0.2-2.8-0.3-4.3-0.3L362.6,74.6z M374.1,8.9
		c-2.2-0.3-4.1-0.5-5.8-0.5c-1.8,0-3.9,0.2-6.2,0.5c-0.2,2.1-0.3,4.1-0.3,6.1c0,1.8,0.1,4.5,0.2,8.1c0.2,2.7,0.3,5.5,0.3,8.3
		c0,1.1-0.1,2.1-0.2,2.8c-0.2,0.7-0.5,1.3-0.9,1.8h-0.1c-0.8,0-2.4-2.9-4.8-8.6l-0.7-1.8c-0.2-0.4-0.7-1.2-1.5-2.4
		c-0.8-1.2-1.2-2.3-1.3-3.1l-1.8-3.6c-1.9-3.5-2.9-5.8-3.1-6.8c-0.6-0.1-1.8-0.2-3.6-0.4c-0.3,0-0.8,0-1.6-0.1
		c-0.7-0.1-1.2-0.2-1.5-0.3h-1.6c-0.2,0.1-0.5,0.2-1,0.2h-0.7c-0.4,0-0.7,0-0.9,0.1c-0.6,7.6-0.9,16.8-0.9,27.6
		c0,4.1,0.1,10.3,0.2,18.5c0.1,8.2,0.2,14.4,0.2,18.4c1.1,0,2,0,2.9,0.1c0.9,0.1,1.5,0.1,1.9,0.1c1.3,0.2,2.8,0.3,4.4,0.3
		c0.3-0.1,0.8-0.2,1.5-0.2c0.6,0,1.1,0,1.4-0.1c-0.2-2.4-0.3-4.9-0.3-7.4c0-3.1,0.1-6.1,0.3-9.2c0.1-3,0.2-5.3,0.2-6.8l-0.1-2.7
		c0-3.7,0.3-5.6,1-5.6h0.1l0.5,0.3c0.6,1.4,1.3,3.5,2.3,6.4c0.2,0.7,0.6,1.7,1.1,3.1c0.5,1.4,1,2.6,1.4,3.6
		c1.1,2.9,2.8,6.6,5.1,11.1l3.3,7.1c1.9,0,3.5,0.1,4.7,0.3c1.5,0.1,2.7,0.2,3.6,0.2c0.3,0,0.7-0.1,1.2-0.2c0.5-0.1,1-0.2,1.4-0.3
		L374.1,8.9z"/>
</g>
<g class="st0">
	<path d="M420.6,10.6C416.2,32.8,411,54,405,74.5c-0.9,0.4-3,0.7-6.2,0.7l-3.4,0.1c-2.6,0-4.2-0.4-5-1.2c-2.4-8.3-4.4-17.2-6.2-26.7
		c-1.8-9.5-3.1-18.5-3.9-26.7l-0.6-6.5c-0.1-0.5-0.1-1.1-0.1-1.7c0-0.7-0.1-1.2-0.1-1.7c1.2-1.2,3.9-1.9,7.9-1.9
		c2.4,0,4.1,0.1,5.1,0.4c0.9,0.3,1.5,0.8,1.7,1.5c0.2,0.7,0.3,2,0.3,4V17c0,13.2,1.3,24.7,3.8,34.6c1-4.9,2.3-12.5,4-22.7
		c0.8-4.9,1.6-9.3,2.3-13.2c0.7-4,1.2-5.9,1.5-5.9v0.1l0.3-0.6l0.2-0.1h0.3c0.7,0.2,1.7,0.4,2.7,0.4l3.5-0.1c3.4,0,5.9,0.2,7.3,0.6
		L420.6,10.6z M419.5,10.8h-1.8c-1.4,0-2.3-0.1-2.8-0.3l-3.8,0.1c-1.7,0-3.1-0.2-4.3-0.5c-0.7,2.4-1.4,6.2-2.2,11.3
		c-0.3,2.4-0.6,4.3-0.9,5.7l-1.1,6.5c-1.3,7.9-2.6,14.6-3.9,20c-0.2-0.1-0.5-0.1-0.9-0.1c-2.9-11.6-4.3-22.5-4.3-32.7v-3.6
		c0-3-0.2-5.4-0.6-7.2c-1.4-0.2-3.2-0.4-5.6-0.4c-3.6,0-5.8,0.4-6.8,1.1c1.9,23.1,5.5,44,10.8,62.8c1.3,0.5,3,0.7,5,0.7
		c1.4,0,2.8-0.1,4.2-0.3c1.7-0.1,3-0.2,3.7-0.2C410.3,53.1,415.4,32.1,419.5,10.8z"/>
</g>
<g class="st0">
	<path d="M452.6,75.3c-1.4,0-2.9-0.1-4.7-0.2c-1.7-0.2-2.8-0.5-3.2-0.9c-0.6-1.4-1.2-3.7-1.9-6.8c-0.4-1.9-0.7-3.4-1.1-4.6
		s-0.8-2.4-1.4-3.5c-0.5,0-1,0-1.6-0.1c-0.6-0.1-1.1-0.1-1.6-0.1c-0.2,0.1-0.6,0.2-0.9,0.2l-1.1-0.1c-0.6,1.2-1,2.5-1.2,4.1
		c-0.2,1.5-0.4,2.4-0.4,2.8c-0.2,1.9-0.5,3.6-0.9,4.9c-0.3,1.3-0.9,2.6-1.5,3.7l-0.2,0.1l-0.4,0.2h0.1l-0.8,0.1l-5.6-0.1
		c-3.1-0.1-5.5-0.2-7.2-0.2l-0.1-0.1l-0.2-0.5c0.3-1.1,0.5-2.4,0.7-3.9c0.1-1.1,0.2-1.9,0.4-2.3c3.6-22.5,8-42.2,13.3-59l0.5-0.4
		h0.5c0.4-0.2,2.4-0.3,6-0.3c0.9-0.1,1.8-0.1,2.7-0.1c0.9,0,1.7,0,2.4-0.1c0.5,0.6,1,1.7,1.4,3.5c0.4,1.8,0.6,2.8,0.7,3.1l0.5,2.3
		c2.4,10.5,6.2,27.4,11.2,50.8l1.4,6.4v0.3C457.9,75,456.1,75.3,452.6,75.3z M457.2,74l-5.9-26.8c-3.3-14.8-5.5-24.8-6.6-29.9
		c-0.1-0.3-0.3-1.4-0.8-3.3c-0.6-2.2-1-3.9-1.1-5c-2.9,0.3-6.5,0.5-10.8,0.5c-5.6,17.8-10,37.4-13.2,58.7c-0.1,0.5-0.2,1.4-0.3,2.6
		c-0.2,1.2-0.4,2.3-0.6,3.1c4.1,0.2,7,0.3,8.8,0.3c1.9,0,3.2-0.1,3.8-0.2c0.6-1,1.1-2.2,1.4-3.5c0.3-1.3,0.7-2.9,1-4.8
		c0.5-3.2,1.1-5.6,1.7-7.1l0.4-0.3h2c0.2-0.1,0.6-0.2,1.1-0.2s1.1,0,1.7,0.1c0.6,0.1,1.1,0.2,1.5,0.4c0.8,1.6,1.4,3.3,1.8,5.1
		c0.4,1.9,0.6,3,0.7,3.3c0.6,2.9,1.1,5,1.7,6.5c0.6,0.1,1.4,0.2,2.2,0.3c0.9,0.2,1.6,0.3,2.2,0.3c1.2,0.1,2.2,0.2,2.9,0.2
		C454.4,74.4,455.9,74.3,457.2,74z M435.6,48.2c-0.7,0-1.3-0.2-1.8-0.7c1.2-13.3,2.4-19.9,3.6-19.9h0.4c1,1.2,1.7,3.1,2.2,5.7
		c0.5,2.6,0.9,5.9,1.2,9.9c0.1,0.7,0.1,1.4,0.2,2.2c0.1,0.7,0.2,1.5,0.3,2.2l-0.5,0.5L435.6,48.2z M440.7,47.2
		c-0.7-6.3-1.4-11.1-2-14.4c-0.1-0.2-0.2-0.9-0.3-1.9c-0.1-1-0.4-1.7-0.7-2.2c-0.7,2.1-1.2,4.3-1.5,6.5c-0.3,2.2-0.7,5-1,8.5
		l-0.4,3.6c0.4,0.1,1,0.1,1.8,0.1C437.4,47.4,438.8,47.3,440.7,47.2z"/>
</g>
<g class="st0">
	<path d="M485.8,30.4l-0.3-0.6c0.1-0.2,0.1-0.6,0.1-0.9c0-1.5-0.6-2.7-1.8-3.6c-1.2-0.9-2.5-1.4-4-1.4c-1.4,0-2.6,0.4-3.6,1.3
		c-1.1,0.9-1.6,2.1-1.6,3.7c0,1.7,0.5,2.8,1.5,3.4c1,0.6,2.5,1,4.3,1.3c0.9,0.1,1.5,0.2,2,0.4c5.6,1.5,10,4.2,13.2,8
		c3.2,3.9,4.8,8.2,4.8,13.1c0,4.2-0.9,7.9-2.8,11c-1.9,3.1-4.4,5.4-7.5,7c-3.1,1.6-6.6,2.3-10.2,2.3c-3.7,0-7.3-0.7-10.8-2.2
		c-3.4-1.5-6.2-3.6-8.4-6.5c-2.2-2.8-3.3-6.1-3.3-9.9c0-1.1,0.2-1.8,0.7-2.1c0.5-0.2,1.4-0.4,2.8-0.4h4.1c4.6,0,7.1,0.2,7.6,0.7
		c0.1,1.7,0.8,3.1,2.1,4.1c1.2,1,2.7,1.4,4.3,1.4c1.5,0,2.8-0.4,3.8-1.3c1.1-0.8,1.6-2,1.6-3.6c0-2.7-1.1-4.7-3.2-5.8
		c-2.2-1.1-5.1-2-8.7-2.6c-0.1-0.1-1.1-0.3-2.9-0.7c-2-0.5-3.9-1.6-5.6-3.4c-1.7-1.8-3.1-3.9-4.1-6.2c-1-2.4-1.5-4.6-1.5-6.6
		c0-4.1,0.9-7.7,2.7-11.1c1.8-3.3,4.4-6,7.7-7.9c3.3-1.9,7.2-2.9,11.6-2.9c3.5,0,6.8,0.6,10,1.9c3.1,1.2,5.7,3.1,7.7,5.7
		c2,2.5,2.9,5.6,2.9,9.2c0,1-0.1,2.6-0.4,4.9c-0.8,0.8-3.6,1.2-8.4,1.2C489.9,31.3,487.8,31,485.8,30.4z M499.6,29.7
		c0.3-1.7,0.5-3.3,0.5-4.7c0-3.3-1-6.1-2.9-8.5c-1.9-2.4-4.4-4.2-7.5-5.4c-3.1-1.2-6.3-1.8-9.6-1.8c-4,0-7.6,0.9-10.7,2.8
		c-3.1,1.8-5.6,4.3-7.4,7.5c-1.8,3.1-2.7,6.6-2.7,10.2c0,1.9,0.4,4.1,1.3,6.4c0.9,2.3,2.1,4.3,3.7,6.1c1.6,1.8,3.4,2.9,5.4,3.4
		c0.7,0.2,1.8,0.4,3.3,0.7c2.6,0.5,4.7,1,6.4,1.5c1.7,0.5,3.1,1.4,4.3,2.7c1.2,1.2,1.8,3,1.8,5.1c0,1.8-0.7,3.2-2,4.3
		c-1.3,1-2.8,1.5-4.6,1.5c-1.8,0-3.4-0.5-4.9-1.6c-1.4-1.1-2.2-2.5-2.3-4.4c-2.1,0-3.7,0-4.8-0.1l-4.9-0.1c-1.7,0-2.9,0.1-3.7,0.2
		c0,3.9,1,7.2,2.9,10.1c2,2.9,4.6,5,7.9,6.5c3.3,1.5,6.8,2.2,10.7,2.2c3.5,0,6.7-0.7,9.7-2.2c3-1.5,5.4-3.6,7.2-6.5
		c1.8-2.9,2.7-6.4,2.7-10.4c0-4-1.1-7.6-3.4-10.9c-2.3-3.3-5.4-5.9-9.4-7.9c-0.6-0.3-1.4-0.6-2.5-0.8c-1-0.2-1.7-0.4-2-0.4
		c-2.8-0.5-4.9-1.2-6.4-2c-1.5-0.8-2.2-2.2-2.2-4.2c0-1.9,0.6-3.4,1.8-4.4c1.2-1,2.6-1.5,4.3-1.5c1.8,0,3.4,0.5,4.8,1.6
		c1.4,1.1,2.1,2.4,2.1,4l-0.1,0.9c1.9,0.6,3.8,0.8,5.8,0.8C493.9,30.4,496.3,30.2,499.6,29.7z"/>
	<path d="M505.1,39.4c0-0.9,0.1-2.3,0.2-4.2c0.1-1.5,0.2-2.5,0.2-3.1l0.3-0.6c0.6-0.2,1.5-0.5,2.8-0.7c1.2-0.2,2.5-0.3,3.8-0.3
		c3.4,0,5.3,0.5,5.8,1.4c-0.4,2.3-0.6,6-0.6,10.9l-0.5,0.5l-10.8-0.1H506C505.4,43.1,505.1,41.8,505.1,39.4z M505.1,70.8
		c0-0.9,0.1-2.3,0.2-4.2c0.1-1.5,0.2-2.5,0.2-3.1l0.3-0.6c0.6-0.2,1.5-0.5,2.8-0.7c1.2-0.2,2.5-0.3,3.8-0.3c3.4,0,5.3,0.5,5.8,1.4
		c-0.4,2.3-0.6,6-0.6,10.9l-0.5,0.5l-10.8-0.1H506C505.4,74.5,505.1,73.2,505.1,70.8z M517.1,32.1c-0.9-0.3-2.2-0.5-3.8-0.5
		c-2.1,0-4.3,0.2-6.8,0.7c0,0.6-0.1,1.7-0.2,3.3c-0.2,1.3-0.3,2.7-0.3,4c0,1.2,0.1,2.1,0.4,2.8l10.3,0.1
		C516.6,37.9,516.8,34.4,517.1,32.1z M516.6,69.9c0-2.2,0.2-4.4,0.5-6.4c-1.3-0.4-2.7-0.6-4.2-0.6c-1.8,0-4,0.2-6.5,0.7
		c0,0.6-0.1,1.7-0.2,3.3c-0.2,1.3-0.3,2.7-0.3,4c0,1.2,0.1,2.1,0.4,2.8l10.3,0.1C516.6,73.5,516.6,72.2,516.6,69.9z"/>
</g>
<g class="st0">
	<path d="M586.6,31.1c-0.4,3.6-1.8,6.8-4.1,9.8c-2.3,3-5.2,5.3-8.6,7.1c-3.4,1.7-7,2.6-10.8,2.6c-0.2,0-0.4,0-0.7,0
		c-0.3,0-0.7,0-1.1,0c0.1,0.7,0.1,1.5,0,2.2c0,0.7,0,1.4,0,2.1v19l-1,0.1c-1.7,0.5-4.6,0.7-8.8,0.7c-3.1,0-6-0.2-8.6-0.5
		c-0.2-6-0.4-16.6-0.4-31.5V31.4c0-10.2-0.1-17.5-0.3-22.2c4.8-1.4,9.8-2.1,15.1-2.1c8,0,14.9,1.7,20.5,5.1c5.6,3.4,8.7,8.8,9,16.2
		v0.1C586.7,29.8,586.6,30.6,586.6,31.1z M564.9,22.7c-1.2-0.2-2.4-0.4-3.6-0.4c-1.2,0-2.1,0-2.8,0c0.1,1,0.1,2.7,0.1,5.1v0.8
		c0,1.9,0,3.4,0.1,4.6s0.3,2.3,0.6,3.2h1.3c0.4,0,1.4,0,2.8,0c1.4,0,2.6-0.2,3.6-0.6s1.8-1,2.4-1.9c0.6-1.1,0.9-2.3,0.9-3.6
		c0-1.7-0.5-3.2-1.5-4.7l-0.7-0.8C567.1,23.5,566.1,22.9,564.9,22.7z"/>
	<path d="M630.3,74.6c-2.7,0-6.8,0.1-12.2,0.2l-12.3,0.1c-5.5,0-11.1-0.2-16.6-0.6c0.1-2,0-9.8-0.3-23.3c-0.2-7.7-0.3-13.6-0.3-17.7
		c0-8.5,0.2-16.5,0.7-23.8l8.2-0.3c9.2-0.4,16.3-0.6,21.1-0.6c4.2,0,8.2,0.2,12.2,0.5c0.2,1.3,0.4,2.8,0.4,4.6
		c0,0.9-0.1,2.5-0.2,4.6c-0.1,2-0.2,3.6-0.2,4.7c-3.7,0.8-7.9,1.2-12.5,1.2l-12.2,0.1c-0.3,2.9-0.5,5.4-0.5,7.3
		c0,1.5,0.2,2.8,0.6,3.9l6.2-0.7c0.9,0,2.2,0.1,3.9,0.2l1.2,0.1c0.3,1.9,0.5,3.9,0.5,6.1l-0.2,7.5c-2,0.6-4.7,0.8-8,0.8l-2.4-0.1
		c-0.4,0-0.7,0.1-0.8,0.2l-0.4,4.9c0,2.6,0.1,4.7,0.4,6.4c3.2,0,6.4,0.1,9.4,0.3c1.1,0.1,2.4,0.1,3.9,0.2c1.6,0.1,3.4,0.1,5.5,0.1
		l5.7-0.2c0.1,2.9,0.2,4.5,0.2,5C631.4,69.3,631,72.1,630.3,74.6z"/>
	<path d="M677.5,66.6c1.5,2.6,2.8,5.3,3.8,7.9h-1.5c-0.7,0-2.4,0.1-5,0.2c-2.6,0.1-4.7,0.2-6.3,0.2c-0.9,0-2.2-0.1-3.9-0.2l-1.6-0.1
		c-4.1-9.2-7.7-16.1-10.8-20.8v2.4c0,3.9,0.2,8.9,0.7,15v-0.1c0.1,0.4,0.1,1.2,0.1,2.2c-2.1,1-5.6,1.5-10.5,1.5l-2.2-0.1h-5
		c-0.7,0-1-5.6-1-16.9c0-10.2-0.1-20.5-0.3-30.7c-0.2-10.3-0.5-16.4-0.8-18.5l2.5-0.4c3.7-0.5,6.8-0.9,9.3-1.1
		c2.4-0.2,4.9-0.4,7.5-0.4c2.7,0,5.1,0.1,7,0.4c3.6,0.4,7,1.7,10.1,3.7c3.1,2.1,5.7,4.6,7.6,7.6c1.9,3,2.9,6.1,2.9,9.3
		c0,3.1-1,6.4-3,10c-1.2,2.2-2.9,4.1-5,5.6c-2.1,1.5-4.5,2.4-7.4,2.7c1.7,3,3.6,6.1,5.9,9.4c0.4,0.7,0.8,1.2,1,1.5
		C674,60.8,676,64,677.5,66.6z M660.1,31.3c0.5-1,0.7-2.2,0.7-3.6c0-2.6-0.6-4.2-1.9-5c-0.8-0.5-1.6-0.8-2.5-0.9
		c-0.8-0.1-1.8-0.2-2.9-0.2l-4,0.7c0.1,1.9,0.2,3.5,0.2,4.8c0,3.4,0.1,5.4,0.3,6.2c1.1,0.1,2.4,0.2,3.9,0.2c1.4,0,2.8-0.1,4-0.3
		C658.9,32.9,659.6,32.3,660.1,31.3z"/>
	<path d="M721.9,14.9c0,3.6-0.2,6.9-0.7,9.7c-2.1-0.4-3.7-0.6-4.9-0.6L712,24c-1.6,0-2.4,0.1-2.4,0.3c-0.1,0.9-0.2,2.7-0.2,5.5
		c0,5.5,0.2,20.3,0.7,44.3c-1.8,0.3-3.9,0.5-6.4,0.5h-2.7c-3.1,0-6,0.2-8.6,0.7c-0.2-0.3-0.3-1-0.4-1.9c-0.1-1-0.1-1.9,0-2.7v-4.6
		l0.1-8.4c0-11.3-0.2-22.4-0.7-33.2c-0.7-0.3-1.7-0.5-2.9-0.5l-3.7,0.1c-2.1,0-3.6-0.2-4.6-0.5c-0.2-0.4-0.3-1.4-0.5-3.1
		c-0.1-1.7-0.2-3.6-0.2-5.7c0-3.1,0-5.4,0.1-6.7h4l3.6-0.1h5.2l5.4-0.1c9.3,0,16.9,0.3,22.7,1h1.2C721.8,11.1,721.9,13.1,721.9,14.9
		z"/>
	<path d="M766.6,74.1c-2.6,0.4-5.9,0.7-10.1,0.7c-2.1,0-4.1,0.1-5.8,0.2c-0.4-2.7-0.7-7.4-0.8-14.2c-0.1-5.2-0.4-9.3-0.8-12.1
		l-3.6-0.2c-1.9,0-3.3,0.1-4.3,0.4c-0.2,1.8-0.3,3.5-0.3,5.1c0,2.8,0,4.9,0.1,6.3v2.4l0.1,2.4c0,3.7-0.2,6.6-0.5,8.5
		c-1.4,0.8-3.2,1.2-5.2,1.2c-1,0-2.2-0.1-3.7-0.2l-0.8-0.1c-1.1-0.1-1.9-0.2-2.2-0.2l-3,0.2c-0.4-5.6-0.9-14.1-1.3-25.3
		c-0.4-11.3-0.7-21.3-0.7-30.1c0-5,0-8.5,0.1-10.5l10.6-0.2c1.6,0,3.1,0.2,4.4,0.7c0.3,2.7,0.5,5.8,0.7,9.3l0.1,2.2
		c0.1,2.7,0.3,5,0.5,6.9c0.2,1.8,0.5,3.9,0.9,6l3.6,0.4c0.6,0,1.2-0.1,1.8-0.2c0.6-0.1,1.2-0.2,1.7-0.3h0.2
		c0.4-4.7,0.7-9.3,0.7-13.7c0-3.2-0.1-6.7-0.3-10.5c1.4-0.4,3.2-0.8,5.2-1c2.1-0.2,4.1-0.4,6-0.4c1.7,0,3.1,0.1,4.4,0.2L766.6,74.1z
		"/>
</g>
</svg>
